<svg xmlns="http://www.w3.org/2000/svg" width="1400" height="720" viewBox="0 0 1400 720">
<rect width="100%" height="100%" fill="white"/>
<text x="50" y="55" font-family="Arial" font-size="28" font-weight="bold">Enterprise GCP Data Lake</text>
<line x1="190.0" y1="160.0" x2="500.0" y2="160.0" stroke="black" stroke-width="2" marker-end="url(#arrow)"/>
<line x1="500.0" y1="160.0" x2="785.0" y2="160.0" stroke="black" stroke-width="2" marker-end="url(#arrow)"/>
<line x1="785.0" y1="160.0" x2="1070.0" y2="160.0" stroke="black" stroke-width="2" marker-end="url(#arrow)"/>
<line x1="1070.0" y1="160.0" x2="500.0" y2="360.0" stroke="black" stroke-width="2" marker-end="url(#arrow)"/>
<line x1="500.0" y1="360.0" x2="785.0" y2="360.0" stroke="black" stroke-width="2" marker-end="url(#arrow)"/>
<line x1="785.0" y1="360.0" x2="1070.0" y2="360.0" stroke="black" stroke-width="2" marker-end="url(#arrow)"/>
<rect x="60" y="120" width="260" height="80" rx="12" fill="white" stroke="black" stroke-width="2"/>
<text x="190.0" y="160.0" text-anchor="middle" font-family="Arial" font-size="18">SAP / Oracle / SQL Server / CSV</text>
<rect x="390" y="120" width="220" height="80" rx="12" fill="white" stroke="black" stroke-width="2"/>
<text x="500.0" y="160.0" text-anchor="middle" font-family="Arial" font-size="18">GCS Bronze / RAW</text>
<rect x="680" y="120" width="210" height="80" rx="12" fill="white" stroke="black" stroke-width="2"/>
<text x="785.0" y="160.0" text-anchor="middle" font-family="Arial" font-size="18">Apache Airflow</text>
<rect x="960" y="120" width="220" height="80" rx="12" fill="white" stroke="black" stroke-width="2"/>
<text x="1070.0" y="160.0" text-anchor="middle" font-family="Arial" font-size="18">Dataproc / PySpark</text>
<rect x="390" y="320" width="220" height="80" rx="12" fill="white" stroke="black" stroke-width="2"/>
<text x="500.0" y="360.0" text-anchor="middle" font-family="Arial" font-size="18">GCS Silver</text>
<rect x="680" y="320" width="210" height="80" rx="12" fill="white" stroke="black" stroke-width="2"/>
<text x="785.0" y="360.0" text-anchor="middle" font-family="Arial" font-size="18">BigQuery Gold</text>
<rect x="960" y="320" width="220" height="80" rx="12" fill="white" stroke="black" stroke-width="2"/>
<text x="1070.0" y="360.0" text-anchor="middle" font-family="Arial" font-size="18">BI / Analytics</text>
<defs><marker id="arrow" markerWidth="10" markerHeight="10" refX="8" refY="3" orient="auto"><path d="M0,0 L0,6 L9,3 z" fill="black"/></marker></defs>
</svg>